<svg id="Layer_1" data-name="Layer 1" xmlns="http://www.w3.org/2000/svg" viewBox="0 0 121.48 85.04"><defs><style>.cls-1{fill:#fff;}</style></defs><path d="M122.37,18.39A15.23,15.23,0,0,0,111.62,7.65c-9.47-2.54-47.46-2.54-47.46-2.54s-38,0-47.46,2.54A15.2,15.2,0,0,0,6,18.39C3.42,27.86,3.42,47.63,3.42,47.63S3.42,67.4,6,76.87A15.2,15.2,0,0,0,16.7,87.61c9.47,2.54,47.46,2.54,47.46,2.54s38,0,47.46-2.54a15.23,15.23,0,0,0,10.75-10.74c2.53-9.47,2.53-29.24,2.53-29.24S124.9,27.86,122.37,18.39Z" transform="translate(-3.42 -5.11)"/><polygon class="cls-1" points="48.59 60.74 80.16 42.52 48.59 24.3 48.59 60.74"/></svg>